HIERARCHY
ROOT Hips
{
	OFFSET -0.001795 -0.223333 0.028219
	CHANNELS 6 Xposition Yposition Zposition Zrotation Yrotation Xrotation 
	JOINT LeftUpLeg
	{
		OFFSET 0.069520 -0.091406 -0.006815
		CHANNELS 3 Zrotation Yrotation Xrotation
		JOINT LeftLeg
		{
			OFFSET 0.034277 -0.375199 -0.004496
			CHANNELS 3 Zrotation Yrotation Xrotation
			JOINT LeftFoot
			{
				OFFSET -0.013596 -0.397961 -0.043693
				CHANNELS 3 Zrotation Yrotation Xrotation
				JOINT LeftToe
				{
					OFFSET 0.026358 -0.055791 0.119288
					CHANNELS 3 Zrotation Yrotation Xrotation
					End Site
					{
						OFFSET 0.000000 0.000000 0.000000
					}
				}
			}
		}
	}
	JOINT RightUpLeg
	{
		OFFSET -0.067670 -0.090522 -0.004320
		CHANNELS 3 Zrotation Yrotation Xrotation
		JOINT RightLeg
		{
			OFFSET -0.038290 -0.382569 -0.008850
			CHANNELS 3 Zrotation Yrotation Xrotation
			JOINT RightFoot
			{
				OFFSET 0.015774 -0.398415 -0.042312
				CHANNELS 3 Zrotation Yrotation Xrotation
				JOINT RightToe
				{
					OFFSET -0.025372 -0.048144 0.123348
					CHANNELS 3 Zrotation Yrotation Xrotation
					End Site
					{
						OFFSET 0.000000 0.000000 0.000000
					}
				}
			}
		}
	}
	JOINT Spine
	{
		OFFSET -0.002533 0.108963 -0.026696
		CHANNELS 3 Zrotation Yrotation Xrotation
		JOINT Spine1
		{
			OFFSET 0.005487 0.135180 0.001092
			CHANNELS 3 Zrotation Yrotation Xrotation
			JOINT Spine2
			{
				OFFSET 0.001457 0.052922 0.025425
				CHANNELS 3 Zrotation Yrotation Xrotation
				JOINT Neck
				{
					OFFSET -0.002778 0.213870 -0.042857
					CHANNELS 3 Zrotation Yrotation Xrotation
					JOINT Head
					{
						OFFSET 0.005152 0.064970 0.051349
						CHANNELS 3 Zrotation Yrotation Xrotation
						End Site
						{
							OFFSET 0.000000 0.000000 0.000000
						}
					}
				}
				JOINT LeftShoulder
				{
					OFFSET 0.078845 0.121749 -0.034090
					CHANNELS 3 Zrotation Yrotation Xrotation
					JOINT LeftArm
					{
						OFFSET 0.090977 0.030469 -0.008868
						CHANNELS 3 Zrotation Yrotation Xrotation
						JOINT LeftForeArm
						{
							OFFSET 0.259612 -0.012772 -0.027456
							CHANNELS 3 Zrotation Yrotation Xrotation
							JOINT LeftHand
							{
								OFFSET 0.249234 0.008986 -0.001171
								CHANNELS 3 Zrotation Yrotation Xrotation
								End Site
								{
									OFFSET 0.000000 0.000000 0.000000
								}
							}
						}
					}
				}
				JOINT RightShoulder
				{
					OFFSET -0.081759 0.118833 -0.038615
					CHANNELS 3 Zrotation Yrotation Xrotation
					JOINT RightArm
					{
						OFFSET -0.096012 0.032551 -0.009143
						CHANNELS 3 Zrotation Yrotation Xrotation
						JOINT RightForeArm
						{
							OFFSET -0.253742 -0.013329 -0.021401
							CHANNELS 3 Zrotation Yrotation Xrotation
							JOINT RightHand
							{
								OFFSET -0.255298 0.007772 -0.005559
								CHANNELS 3 Zrotation Yrotation Xrotation
								End Site
								{
									OFFSET 0.000000 0.000000 0.000000
								}
							}
						}
					}
				}
			}
		}
	}
}
MOTION
Frames: 6
Frame Time: 0.050000
0.000000 0.939733 0.000000 0.038932 -2.654496 -0.349198 4.942096 -0.010440 0.285786 -3.634308 0.421127 0.660980 2.679404 7.239820 5.554148 0.000000 0.000000 0.000000 -2.419314 0.231782 -2.130979 3.202383 -0.241267 5.705586 -2.936878 -8.597786 3.626284 0.000000 0.000000 0.000000 0.214881 -0.458340 11.387934 3.461211 -0.284826 -23.901840 -0.543617 1.981438 26.399381 0.536497 1.398549 -26.942384 0.000000 0.000000 0.000000 -27.941044 -1.941268 -0.633471 -45.986186 -11.635159 -3.330983 -14.316284 -26.759073 4.737469 0.000000 0.000000 0.000000 19.731520 6.453120 2.532886 48.806557 13.456531 -1.748153 7.725291 26.928161 2.871671 0.000000 0.000000 0.000000 
-0.001149 0.939529 0.001422 -0.157321 -2.941245 -0.108395 5.160967 0.025800 1.056388 -3.106879 0.364435 -0.508456 2.089541 6.018589 5.160984 0.000000 0.000000 0.000000 -2.329563 0.235176 -2.156366 3.233049 -0.245077 5.523602 -2.528043 -7.790036 3.924521 0.000000 0.000000 0.000000 0.556555 -0.497354 11.485930 3.430468 -0.269096 -24.086203 -0.589007 1.984931 25.743881 -0.470518 1.984296 -27.644191 0.000000 0.000000 0.000000 -28.325796 -1.387249 -1.010195 -45.696433 -11.276136 -3.392519 -15.482919 -25.403185 4.736284 0.000000 0.000000 0.000000 19.065269 6.718657 2.614222 49.958390 12.123458 -2.205351 8.439976 27.218428 3.064705 0.000000 0.000000 0.000000 
-0.002038 0.939186 0.002470 0.052672 -2.386938 -0.113525 5.030961 -0.003207 0.568087 -3.119644 0.355320 0.751365 2.196539 5.961931 4.153242 0.000000 0.000000 0.000000 -2.519525 0.236634 -2.178431 3.415474 -0.273963 5.904889 -2.921175 -8.479600 3.387638 0.000000 0.000000 0.000000 0.789132 -0.525821 11.435554 3.319376 -0.206329 -24.588408 -0.849760 1.309121 26.252872 -0.948171 2.190605 -27.703922 0.000000 0.000000 0.000000 -28.903629 -1.223547 -1.008994 -44.872821 -10.943915 -3.565103 -15.497542 -24.319237 4.528796 0.000000 0.000000 0.000000 19.893305 6.639680 2.504755 49.085988 11.460444 -2.507688 9.229782 27.079135 3.206895 0.000000 0.000000 0.000000 
-0.002896 0.939140 0.003489 0.216045 -2.345056 -0.168626 5.030909 0.024564 1.121828 -3.173615 0.364927 0.110114 1.730300 5.085812 4.216336 0.000000 0.000000 0.000000 -2.593885 0.215771 -1.904514 3.342938 -0.268063 5.576702 -2.933573 -8.629151 3.782182 0.000000 0.000000 0.000000 0.282350 -0.479463 11.676094 4.060858 -0.347330 -25.088794 -1.079744 1.040124 26.258751 -1.154966 2.269913 -27.852225 0.000000 0.000000 0.000000 -29.545732 -0.189176 -1.663595 -44.385272 -10.761839 -3.628947 -16.571321 -23.761141 4.663065 0.000000 0.000000 0.000000 19.888567 6.773552 2.513158 48.474751 10.738758 -2.764847 10.530410 26.896571 3.454537 0.000000 0.000000 0.000000 
-0.003645 0.939206 0.004312 0.229644 -2.781594 -0.299883 4.716398 0.040561 1.209128 -2.779829 0.320183 0.312652 1.823239 5.229249 4.155845 0.000000 0.000000 0.000000 -2.540605 0.214381 -1.882044 3.284020 -0.257698 5.323763 -2.927015 -8.670676 3.919115 0.000000 0.000000 0.000000 0.402103 -0.487246 11.683064 4.129909 -0.403498 -24.562090 -1.072127 1.207481 25.828556 -1.387240 2.374493 -27.446957 0.000000 0.000000 0.000000 -29.483086 0.073884 -1.817511 -44.283337 -10.261959 -3.758161 -17.158883 -23.824199 4.804804 0.000000 0.000000 0.000000 20.026750 6.276583 2.187135 48.874783 10.566349 -2.785607 10.323784 26.822217 3.394570 0.000000 0.000000 0.000000 
-0.004136 0.939536 0.004880 0.322079 -2.821303 -0.121168 4.554917 0.039256 1.173093 -2.675517 0.311928 -0.132353 1.648078 4.898755 4.189696 0.000000 0.000000 0.000000 -2.710265 0.229145 -2.033361 3.325855 -0.267640 5.004259 -2.870970 -8.711115 4.438686 0.000000 0.000000 0.000000 0.181050 -0.452677 11.416720 4.480426 -0.474193 -24.718320 -1.083999 1.153349 25.861728 -1.330408 2.332696 -27.562462 0.000000 0.000000 0.000000 -29.724463 0.506091 -2.103804 -44.173048 -9.940754 -3.872564 -17.523107 -23.673254 4.856302 0.000000 0.000000 0.000000 20.054620 6.233062 2.139222 48.766643 10.205027 -2.919512 10.309616 26.358821 3.314498 0.000000 0.000000 0.000000 
